<?xml version="1.0" encoding="utf-8"?>
<!-- Generator: Adobe Illustrator 27.4.1, SVG Export Plug-In . SVG Version: 6.00 Build 0)  -->
<svg version="1.1" xmlns="http://www.w3.org/2000/svg" xmlns:xlink="http://www.w3.org/1999/xlink" x="0px" y="0px"
	 viewBox="0 0 792 612" style="enable-background:new 0 0 792 612;" xml:space="preserve">
<style type="text/css">
	.st0{fill:#6ABF4B;}
	.st1{fill:#001E61;}
</style>
<g id="Layer_1">
	<g>
		<path class="st0" d="M263.96,207.87v-23.69h-4.77v23.69h-18.83v-65.8h18.83v23.28h4.77v-23.28h18.83v65.8H263.96z"/>
		<path class="st0" d="M291.52,207.87v-65.8h38.05v17.85h-19.55v8.47h18.18v12.91h-18.18v8.72h19.88v17.85H291.52z"/>
		<path class="st0" d="M364.64,207.87l-1.37-9.21h-7.51l-1.54,9.21h-18.66l13.33-65.8h21.09l13.82,65.8H364.64z M359.63,174.64
			l-2.18,14.15h4.12L359.63,174.64z"/>
		<path class="st0" d="M390.17,207.87v-65.8h19.15v47.96h14.63v17.85H390.17z"/>
		<path class="st0" d="M451.73,159.92v47.96h-19.47v-47.96h-12.28v-17.85h42.9v17.85H451.73z"/>
		<path class="st0" d="M493.1,207.87v-23.69h-4.77v23.69h-18.83v-65.8h18.83v23.28h4.77v-23.28h18.83v65.8H493.1z"/>
		<path class="st0" d="M550.29,183.19v24.68h-19.39v-24.18l-13.74-41.62h19.8l4.77,19.58l5.01-19.58h17.7L550.29,183.19z"/>
	</g>
	<g>
		<path class="st0" d="M278.51,284.45v-36.52l-5.66,36.52h-9.94l-5.66-36.6v36.6h-16.89v-65.8h24.32l3.55,24.51l3.8-24.51h23.43
			v65.8H278.51z"/>
		<path class="st0" d="M304.2,284.45v-65.8h19.39v65.8H304.2z"/>
		<path class="st0" d="M358.25,284.45l-7.43-27.8v27.8H332.4v-65.8h18.18l7.51,25.17v-25.17h18.34v65.8H358.25z"/>
		<path class="st0" d="M427.33,270.96c-0.73,8.8-8.4,13.49-15.27,13.49h-26.99v-65.8h24.56c9.37,0,16.16,5.76,17.45,13.74
			c0.73,4.77,0.89,11.27,0.89,17.77C427.98,256.4,427.66,267.18,427.33,270.96z M408.43,239.79c-0.24-2.14-0.97-3.87-2.67-3.87h-2.1
			v31.26H406c1.45,0,2.34-1.07,2.51-3.78c0.08-2.8,0.16-9.38,0.16-11.84C408.67,249.08,408.51,240.85,408.43,239.79z"/>
		<path class="st0" d="M455.45,285.36c-12.85,0-21.17-5.26-21.17-23.53h17.53c-0.08,5.68,0.89,7.49,3.07,7.49
			c1.62,0,2.67-0.99,2.67-3.54c0-4.28-1.13-6.25-9.53-9.29c-8.72-3.13-13.49-9.79-13.49-20.4c0-10.45,6.14-18.51,20.76-18.51
			c13.82,0,20.68,7.81,19.88,22.21h-17.69c0-4.36-0.73-6.17-2.75-6.17c-1.94,0-2.43,1.48-2.43,3.45c0,2.3,0.97,4.61,9.13,7.4
			c10.1,3.37,15.35,9.05,15.35,20.15C476.78,279.6,468.06,285.36,455.45,285.36z"/>
	</g>
	<g>
		<path class="st1" d="M263.96,360.86v-23.69h-4.77v23.69h-18.83v-65.8h18.83v23.28h4.77v-23.28h18.83v65.8H263.96z"/>
		<path class="st1" d="M291.52,360.86v-65.8h38.05v17.85h-19.55v8.47h18.18v12.91h-18.18v8.72h19.88v17.85H291.52z"/>
		<path class="st1" d="M364.64,360.86l-1.37-9.21h-7.51l-1.54,9.21h-18.66l13.33-65.8h21.09l13.82,65.8H364.64z M359.63,327.63
			l-2.18,14.15h4.12L359.63,327.63z"/>
		<path class="st1" d="M390.17,360.86v-65.8h19.15v47.96h14.63v17.85H390.17z"/>
		<path class="st1" d="M451.73,312.91v47.96h-19.47v-47.96h-12.28v-17.85h42.9v17.85H451.73z"/>
		<path class="st1" d="M493.1,360.86v-23.69h-4.77v23.69h-18.83v-65.8h18.83v23.28h4.77v-23.28h18.83v65.8H493.1z"/>
		<path class="st1" d="M550.29,336.19v24.68h-19.39v-24.18l-13.74-41.62h19.8l4.77,19.58l5.01-19.58h17.7L550.29,336.19z"/>
	</g>
	<g>
		<path class="st1" d="M266.23,437.44l-7.03-22.29h-0.08v22.29h-18.74v-65.8h18.74v21.96l6.46-21.96h19.31l-10.42,31.09l12.93,34.71
			H266.23z"/>
		<path class="st1" d="M293.31,437.44v-65.8h19.39v65.8H293.31z"/>
		<path class="st1" d="M362.62,423.95c-0.73,8.8-8.4,13.49-15.27,13.49h-26.99v-65.8h24.56c9.37,0,16.16,5.76,17.45,13.74
			c0.73,4.77,0.89,11.27,0.89,17.77C363.26,409.39,362.94,420.17,362.62,423.95z M343.71,392.78c-0.24-2.14-0.97-3.87-2.67-3.87
			h-2.1v31.26h2.34c1.45,0,2.35-1.07,2.51-3.78c0.08-2.8,0.16-9.38,0.16-11.84S343.79,393.85,343.71,392.78z"/>
		<path class="st1" d="M390.73,438.35c-12.85,0-21.17-5.26-21.17-23.53h17.53c-0.08,5.68,0.89,7.49,3.07,7.49
			c1.62,0,2.67-0.99,2.67-3.54c0-4.28-1.13-6.25-9.53-9.29c-8.73-3.13-13.49-9.79-13.49-20.4c0-10.45,6.14-18.51,20.76-18.51
			c13.82,0,20.68,7.81,19.88,22.21h-17.7c0-4.36-0.73-6.17-2.75-6.17c-1.94,0-2.42,1.48-2.42,3.45c0,2.3,0.97,4.61,9.13,7.4
			c10.1,3.37,15.35,9.05,15.35,20.15C412.06,432.59,403.34,438.35,390.73,438.35z"/>
	</g>
	<g>
		<path class="st1" d="M230.95,426.94c0,6.55-4,10.2-10.34,10.62c-2.43,0.14-5.77,0.19-9.29,0.19s-7.67-0.05-9.05-0.09
			c-5.29-0.05-10.58-3.14-10.58-10.81c0-6.79,4.38-10.01,10.58-10.11c1.33-0.05,3.76-0.05,5.48-0.05v8.84c-1.43,0-3.29,0-4.34,0.05
			c-1.81,0.05-2.76,0.19-2.76,1.36c0,1.08,1.05,1.31,2.81,1.36c1.57,0.05,5.62,0.09,7.96,0.09c1.67,0,6.38,0,7.81-0.05
			s2.72-0.09,2.72-1.4c0-1.36-1.43-1.31-2.76-1.31c-0.95,0-3.14,0-4.72,0v-8.98c1.71-0.05,4.43-0.05,5.91,0
			C227.04,416.83,230.95,420.95,230.95,426.94z"/>
		<path class="st1" d="M230.42,397.97l-5.15,0.84v5.29l5.15,0.89v8.84l-38.12-7.72v-9.69l38.12-7.63V397.97z M208.03,401.39
			l10.91,1.59v-3.09L208.03,401.39z"/>
		<path class="st1" d="M230.42,362.68h-22.87l22.87,4.21v5.29l-22.87,4.21h22.87v8.33H192.3v-12.31l16.77-2.99l-16.77-3.09v-12.03
			h38.12V362.68z"/>
		<path class="st1" d="M216.08,333.81c0.05,2.01,0,5.71,0,5.71h14.34v8.98H192.3v-14.04c0-4.63,3-7.72,7.43-7.72
			c0.86,0,2.57,0,4.33,0c1.81,0,3.62-0.05,4.43,0C213.03,326.83,216.03,329.83,216.08,333.81z M202.02,335.96
			c-0.81,0.37-1.19,0.8-1.19,1.92v1.69h8.1c0,0,0.05-1.03,0.05-1.69c0-0.89-0.52-1.92-1.67-2.06c-0.52-0.05-1.81-0.14-2.53-0.14
			C204.03,335.68,202.69,335.68,202.02,335.96z"/>
		<path class="st1" d="M230.42,310.41l-5.15,0.84v5.29l5.15,0.89v8.84l-38.12-7.72v-9.69l38.12-7.63V310.41z M208.03,313.82
			l10.91,1.59v-3.09L208.03,313.82z"/>
		<path class="st1" d="M230.42,297.16H192.3v-9.27h38.12V297.16z"/>
		<path class="st1" d="M230.42,263.98l-1.76,1.69c0.86,0.94,2.29,3.7,2.29,6.41c0,5.99-2.81,9.92-9.48,10.44
			c-2.72,0.19-6.62,0.23-10.15,0.23s-8.34-0.05-9.77-0.09c-4.91-0.28-9.86-3.42-9.86-11.04c0-6.13,2.91-9.78,9.63-10.25
			c0.81-0.05,4.95,0,4.95,0v8.8c0,0-1.57,0-2.29,0c-2.57,0-3.43,0.61-3.43,1.64c0,0.94,0.72,1.54,2.53,1.59
			c1.91,0.05,6,0.09,8.34,0.09c1.86,0,7.29-0.09,8.72-0.14c1.67-0.05,2.48-0.47,2.48-1.68c0-1.17-0.72-1.73-2.48-1.73
			c-0.38,0-2.95,0-2.95,0v1.73h-7.38v-10.48c0,0,7.15,0,9.58,0c4.33,0,11.05-0.19,11.05-0.19V263.98z"/>
		<path class="st1" d="M230.42,241.89l-18.15,5.29h18.15v8.8H192.3v-8.98l17.15-5.29H192.3v-8.84h38.12V241.89z"/>
		<path class="st1" d="M200.98,204.97h6.53v-8.42h8.15v8.42h14.77v9.17H192.3v-18.67h8.67V204.97z"/>
		<path class="st1" d="M220.37,169.87c6.38,0.33,10.58,3.84,10.58,11c0,7.16-4.05,10.53-10.48,10.95c-1.48,0.09-5.57,0.14-9.15,0.14
			c-3.57,0-7.72-0.05-9.1-0.14c-6.24-0.33-10.53-3.79-10.53-10.95c0-7.16,4.1-10.62,10.53-10.95c2.71-0.14,5.38-0.14,9.1-0.14
			C214.08,169.77,217.51,169.73,220.37,169.87z M202.88,179.22c-1.67,0.05-2.71,0.28-2.71,1.64c0,1.26,1.14,1.64,2.71,1.68
			c1.96,0.05,5.62,0.14,8.53,0.14c1.48,0,6.91-0.09,8.34-0.14c1.57-0.09,2.67-0.33,2.67-1.68c0-1.31-1.14-1.59-2.72-1.64
			c-1.38-0.05-6.34-0.09-8.48-0.09C209.03,179.13,204.22,179.18,202.88,179.22z"/>
		<path class="st1" d="M230.42,150.96c-0.43,0.47-1.43,0.65-3.81,0.65c-2.76,0-7.43,0-8.43,0c-2.19,0-3.24,0.61-3.24,2.48v1.36
			h15.48v9.08H192.3v-13.71c0-6.27,4.19-8.61,8.96-8.61c3.91,0,8.24,0.94,9.15,5.19h0.19c0.81-3.51,3.53-4.91,7.24-4.91
			c3.67,0,5.96,0,9.82,0c1,0,2.38-0.05,2.53-0.42h0.24V150.96z M203.26,151.52c-1.72,0.05-2.57,0.56-2.57,2.43v1.5
			c0,0,6.29,0,7.15,0c0-0.42,0-1.03-0.05-1.69c-0.19-1.5-0.72-2.2-2.62-2.25c-0.29,0-0.72-0.05-1-0.05
			C203.88,151.47,203.5,151.52,203.26,151.52z"/>
	</g>
</g>
<g id="Layer_2">
</g>
</svg>
